HIERARCHY
ROOT hip
{
  OFFSET 0 0 0
  CHANNELS 6 Xposition Yposition Zposition Zrotation Yrotation Xrotation
  JOINT abdomen
  {
    OFFSET 0 20.6881 -0.73152
    CHANNELS 3 Zrotation Xrotation Yrotation
    JOINT chest
    {
      OFFSET 0 11.7043 -0.48768
      CHANNELS 3 Zrotation Xrotation Yrotation
      JOINT neck
      {
        OFFSET 0 22.1894 -2.19456
        CHANNELS 3 Zrotation Xrotation Yrotation
        JOINT head
        {
          OFFSET -0.24384 7.07133 1.2192
          CHANNELS 3 Zrotation Xrotation Yrotation
          JOINT leftEye
          {
            OFFSET 4.14528 8.04674 8.04672
            CHANNELS 3 Zrotation Xrotation Yrotation
            End Site
            {
              OFFSET 1 0 0
            }
          }
          JOINT rightEye
          {
            OFFSET -3.6576 8.04674 8.04672
            CHANNELS 3 Zrotation Xrotation Yrotation
            End Site
            {
              OFFSET 1 0 0
            }
          }
        }
      }
      JOINT rCollar
      {
        OFFSET -2.68224 19.2634 -4.8768
        CHANNELS 3 Zrotation Xrotation Yrotation
        JOINT rShldr
        {
          OFFSET -8.77824 -1.95073 1.46304
          CHANNELS 3 Zrotation Xrotation Yrotation
          JOINT rForeArm
          {
            OFFSET -28.1742 -1.7115 0.48768
            CHANNELS 3 Zrotation Xrotation Yrotation
            JOINT rHand
            {
              OFFSET -22.5879 0.773209 7.07136
              CHANNELS 3 Zrotation Xrotation Yrotation
              JOINT rThumb1
              {
                OFFSET -1.2192 -0.487915 3.41376
                CHANNELS 3 Zrotation Xrotation Yrotation
                JOINT rThumb2
                {
                  OFFSET -3.37035 -0.52449 3.41376
                  CHANNELS 3 Zrotation Xrotation Yrotation
                  End Site
                  {
                    OFFSET -1.78271 -1.18214 1.43049
                  }
                }
              }
              JOINT rIndex1
              {
                OFFSET -7.75947 0.938293 5.60832
                CHANNELS 3 Zrotation Xrotation Yrotation
                JOINT rIndex2
                {
                  OFFSET -2.54057 -0.884171 1.56538
                  CHANNELS 3 Zrotation Xrotation Yrotation
                  End Site
                  {
                    OFFSET -1.62519 -0.234802 1.16502
                  }
                }
              }
              JOINT rMid1
              {
                OFFSET -8.24714 1.18213 3.41376
                CHANNELS 3 Zrotation Xrotation Yrotation
                JOINT rMid2
                {
                  OFFSET -3.10165 -0.590103 1.0647
                  CHANNELS 3 Zrotation Xrotation Yrotation
                  End Site
                  {
                    OFFSET -2.48547 -0.328903 0.83742
                  }
                }
              }
              JOINT rRing1
              {
                OFFSET -8.82822 0.546677 1.51678
                CHANNELS 3 Zrotation Xrotation Yrotation
                JOINT rRing2
                {
                  OFFSET -2.60934 -0.819778 -0.0198488
                  CHANNELS 3 Zrotation Xrotation Yrotation
                  End Site
                  {
                    OFFSET -2.33842 -0.294052 0.168128
                  }
                }
              }
              JOINT rPinky1
              {
                OFFSET -8.27202 -0.0477905 -0.4584
                CHANNELS 3 Zrotation Xrotation Yrotation
                JOINT rPinky2
                {
                  OFFSET -1.82734 -0.647385 -0.700984
                  CHANNELS 3 Zrotation Xrotation Yrotation
                  End Site
                  {
                    OFFSET -1.69225 -0.51767 -0.607171
                  }
                }
              }
            }
          }
        }
      }
      JOINT lCollar
      {
        OFFSET 2.68224 19.2634 -4.8768
        CHANNELS 3 Zrotation Xrotation Yrotation
        JOINT lShldr
        {
          OFFSET 8.77824 -1.95073 1.46304
          CHANNELS 3 Zrotation Xrotation Yrotation
          JOINT lForeArm
          {
            OFFSET 28.1742 -1.7115 0.48768
            CHANNELS 3 Zrotation Xrotation Yrotation
            JOINT lHand
            {
              OFFSET 22.5879 0.773209 7.07136
              CHANNELS 3 Zrotation Xrotation Yrotation
              JOINT lThumb1
              {
                OFFSET 1.2192 -0.487915 3.41376
                CHANNELS 3 Zrotation Xrotation Yrotation
                JOINT lThumb2
                {
                  OFFSET 3.37035 -0.52449 3.41376
                  CHANNELS 3 Zrotation Xrotation Yrotation
                  End Site
                  {
                    OFFSET 1.78271 -1.18214 1.43049
                  }
                }
              }
              JOINT lIndex1
              {
                OFFSET 7.75947 0.938293 5.60832
                CHANNELS 3 Zrotation Xrotation Yrotation
                JOINT lIndex2
                {
                  OFFSET 2.54057 -0.884171 1.56538
                  CHANNELS 3 Zrotation Xrotation Yrotation
                  End Site
                  {
                    OFFSET 1.62519 -0.234802 1.16502
                  }
                }
              }
              JOINT lMid1
              {
                OFFSET 8.24714 1.18213 3.41376
                CHANNELS 3 Zrotation Xrotation Yrotation
                JOINT lMid2
                {
                  OFFSET 3.10165 -0.590103 1.0647
                  CHANNELS 3 Zrotation Xrotation Yrotation
                  End Site
                  {
                    OFFSET 2.48547 -0.328903 0.83742
                  }
                }
              }
              JOINT lRing1
              {
                OFFSET 8.82822 0.546677 1.51678
                CHANNELS 3 Zrotation Xrotation Yrotation
                JOINT lRing2
                {
                  OFFSET 2.60934 -0.819778 -0.0198488
                  CHANNELS 3 Zrotation Xrotation Yrotation
                  End Site
                  {
                    OFFSET 2.33842 -0.294052 0.168128
                  }
                }
              }
              JOINT lPinky1
              {
                OFFSET 8.27202 -0.0477905 -0.4584
                CHANNELS 3 Zrotation Xrotation Yrotation
                JOINT lPinky2
                {
                  OFFSET 1.82734 -0.647385 -0.700984
                  CHANNELS 3 Zrotation Xrotation Yrotation
                  End Site
                  {
                    OFFSET 1.69225 -0.51767 -0.607171
                  }
                }
              }
            }
          }
        }
      }
    }
  }
  JOINT rButtock
  {
    OFFSET -8.77824 4.35084 1.2192
    CHANNELS 3 Zrotation Xrotation Yrotation
    JOINT rThigh
    {
      OFFSET 0 -1.70687 -2.19456
      CHANNELS 3 Zrotation Xrotation Yrotation
      JOINT rShin
      {
        OFFSET 0 -36.8199 0.73152
        CHANNELS 3 Zrotation Xrotation Yrotation
        JOINT rFoot
        {
          OFFSET 0.73152 -45.1104 -5.12064
          CHANNELS 3 Zrotation Xrotation Yrotation
          End Site
          {
            OFFSET -1.1221 -3.69964 12.103
          }
        }
      }
    }
  }
  JOINT lButtock
  {
    OFFSET 8.77824 4.35084 1.2192
    CHANNELS 3 Zrotation Xrotation Yrotation
    JOINT lThigh
    {
      OFFSET 0 -1.70687 -2.19456
      CHANNELS 3 Zrotation Xrotation Yrotation
      JOINT lShin
      {
        OFFSET 0 -36.8199 0.73152
        CHANNELS 3 Zrotation Xrotation Yrotation
        JOINT lFoot
        {
          OFFSET -0.73152 -45.1104 -5.12064
          CHANNELS 3 Zrotation Xrotation Yrotation
          End Site
          {
            OFFSET 1.1221 -3.69964 12.103
          }
        }
      }
    }
  }
}
MOTION
Frames:	4
Frame Time:	0.03333
3.2493428626013854 39.22120700682849 14.112562236165896 0.6513258814811707 16.45441436767578 5.149209499359131 -9.418667793273926 8.532831192016602 -6.168977737426758 6.073289394378662 -7.2982563972473145 -1.547313928604126 -10.408491134643555 21.144588470458984 -17.396535873413086 18.177623748779297 -16.652313232421875 -31.863780975341797 0.11219141632318497 -0.045241083949804306 0.0020916375797241926 -0.07253092527389526 -0.021955810487270355 0.035056255757808685 0.045405108481645584 0.030065936967730522 0.0723271295428276 68.20931243896484 37.06827926635742 -4.098684787750244 -16.382991790771484 -9.07844066619873 30.240585327148438 0.1981382519006729 3.996413469314575 0.7745882868766785 0.12354865670204163 0.14510133862495422 -0.10979456454515457 0.030353832989931107 -0.11365853250026703 0.29303422570228577 -0.047815337777137756 0.13662295043468475 -0.01692836731672287 7.694577217102051 5.291530132293701 0.47729504108428955 -0.15614616870880127 -0.003526924178004265 0.04276971146464348 2.7761335372924805 0.808376669883728 0.07540440559387207 0.2321924865245819 -0.14616255462169647 0.004998753312975168 10.279696464538574 0.7185205221176147 -0.11550836265087128 0.06770797818899155 0.06859946250915527 -0.1671515554189682 2.2072830200195312 -0.6921231150627136 -0.3422742784023285 -0.015701329335570335 0.20115001499652863 -0.04589018598198891 -75.58375549316406 38.095741271972656 0.6730913519859314 23.457321166992188 -17.973514556884766 -47.27217483520508 -0.23317135870456696 -2.628986358642578 0.39599180221557617 -0.040502939373254776 -0.22312548756599426 0.18269206583499908 -0.09181860089302063 0.30450674891471863 0.02506525069475174 -0.006842634174972773 0.1528043895959854 -0.04248010739684105 -7.727700233459473 5.551604747772217 -0.3529500663280487 0.13807594776153564 -0.02992808260023594 0.15898920595645905 -2.935446262359619 1.1294760704040527 -0.11946786940097809 0.03490660339593887 0.15659135580062866 -0.010058756917715073 -10.332032203674316 0.6928313970565796 -0.07231426239013672 0.04992440342903137 0.03190242499113083 -0.020402109250426292 -2.443902015686035 -0.8395989537239075 -0.04081445559859276 -0.08736543357372284 0.0840509906411171 -0.20141062140464783 -36.147037506103516 -60.228050231933594 -34.391563415527344 -1.5726635456085205 70.87797546386719 2.2941439151763916 2.299466609954834 -8.163496017456055 12.824052810668945 -0.08524157106876373 0.03579564765095711 -0.17889362573623657 6.613981246948242 8.498507499694824 1.343246340751648 -0.18662917613983154 35.01962661743164 -2.1035430431365967 21.572721481323242 -20.237789154052734 39.00840377807617
3.3626518589504886 39.17021964467435 14.20893887339742 0.7057219743728638 16.15747833251953 5.272319316864014 -9.51319694519043 8.586514472961426 -6.79017448425293 6.325926303863525 -7.3127264976501465 -1.7021279335021973 -10.525298118591309 21.549962997436523 -17.74933433532715 18.403594970703125 -17.04672622680664 -32.53398132324219 0.11924432963132858 -0.032511524856090546 -0.0004222107236273587 -0.06486252695322037 -0.013873104937374592 0.03303791210055351 0.01311251800507307 0.03117617592215538 0.09572193771600723 68.4314193725586 37.31072998046875 -4.230502605438232 -16.1722412109375 -8.905932426452637 29.81568717956543 0.1806286871433258 3.925475597381592 0.7715467214584351 0.1235482320189476 0.15581317245960236 -0.09748483449220657 0.01419607549905777 -0.13155138492584229 0.3048696219921112 -0.03474732115864754 0.15332476794719696 -0.028928818181157112 7.723779201507568 5.296041965484619 0.47780632972717285 -0.15505976974964142 -0.00022470613475888968 0.059822697192430496 2.7847695350646973 0.8198094964027405 0.052687738090753555 0.21297360956668854 -0.12254785746335983 0.004613081458956003 10.29355239868164 0.7479100227355957 -0.11512911319732666 0.04660818353295326 0.07524392008781433 -0.16571834683418274 2.187296152114868 -0.7025271654129028 -0.3380821943283081 -0.0209028422832489 0.18890944123268127 -0.046735625714063644 -76.14982604980469 36.717529296875 1.499558925628662 22.85563850402832 -16.889854431152344 -45.56955337524414 -0.2595738172531128 -0.9253074526786804 0.12949439883232117 -0.03073410876095295 -0.2240019589662552 0.1769200712442398 -0.06706972420215607 0.2878176271915436 0.015697523951530457 0.011993242427706718 0.15480419993400574 -0.06824824213981628 -7.727746486663818 5.545970916748047 -0.3650597035884857 0.15077471733093262 -0.027758128941059113 0.14017213881015778 -2.9415717124938965 1.1448074579238892 -0.09456689655780792 0.049782633781433105 0.1411709189414978 -0.0020278452429920435 -10.319028854370117 0.702346682548523 -0.06823962181806564 0.036027852445840836 0.022844398394227028 -0.03944903612136841 -2.4387454986572266 -0.877266526222229 -0.03711855039000511 -0.10549849271774292 0.09304496645927429 -0.21203553676605225 -35.9872932434082 -60.471153259277344 -34.100372314453125 -1.6112086772918701 70.84770965576172 2.3338518142700195 2.287163019180298 -8.180891036987305 12.60275650024414 -0.08365616202354431 0.0504116415977478 -0.1609041392803192 6.483845233917236 8.491440773010254 1.3682143688201904 -0.19373416900634766 34.918094635009766 -2.090775728225708 21.645523071289062 -20.211368560791016 39.07033920288086
3.4707645754450933 39.121704810999745 14.309044900637478 0.8082528710365295 15.940999984741211 5.361621379852295 -9.714408874511719 8.577317237854004 -7.3574137687683105 6.600039482116699 -7.3210248947143555 -1.8402844667434692 -10.679139137268066 21.98160171508789 -18.207693099975586 18.677762985229492 -17.372528076171875 -33.356414794921875 0.1251802146434784 -0.016649287194013596 -0.0007078585913404822 -0.051036011427640915 0.004219816066324711 0.04133126512169838 -0.02569788321852684 0.03009611926972866 0.11859375238418579 68.4791030883789 37.58163833618164 -4.187219619750977 -16.090383529663086 -8.869569778442383 29.657196044921875 0.17334307730197906 3.7135159969329834 0.724297285079956 0.12507513165473938 0.1602437049150467 -0.06701315939426422 -0.01083126850426197 -0.1564248949289322 0.3196347653865814 -0.02117006666958332 0.16819541156291962 -0.02574397623538971 7.760668754577637 5.298342704772949 0.47843098640441895 -0.1475517302751541 0.004431754816323519 0.0782439261674881 2.796612024307251 0.8292196989059448 0.03230171650648117 0.18590518832206726 -0.09446277469396591 -0.0009683927055448294 10.303327560424805 0.773371696472168 -0.11832160502672195 0.025098398327827454 0.07226169109344482 -0.165265753865242 2.179331064224243 -0.7235650420188904 -0.33801016211509705 -0.026751892641186714 0.17321865260601044 -0.04180588573217392 -76.75271606445312 35.399627685546875 2.6152682304382324 22.38500213623047 -16.10655975341797 -44.259559631347656 -0.2800459861755371 0.5428649187088013 -0.09928744286298752 -0.017380166798830032 -0.22297626733779907 0.17377477884292603 -0.051596324890851974 0.2675817906856537 0.013586915098130703 0.04258652776479721 0.1530672311782837 -0.09819936752319336 -7.734226703643799 5.536962509155273 -0.3767116069793701 0.15751449763774872 -0.02654409594833851 0.13185784220695496 -2.951176166534424 1.1538549661636353 -0.06564628332853317 0.06961489468812943 0.11266621947288513 0.004317027051001787 -10.307873725891113 0.708922266960144 -0.06412067264318466 0.017476007342338562 0.01362805999815464 -0.052171219140291214 -2.42610239982605 -0.912480890750885 -0.04684409871697426 -0.13535824418067932 0.10935186594724655 -0.2198861986398697 -35.795204162597656 -60.78989028930664 -33.73093795776367 -1.6570641994476318 70.81533813476562 2.3734917640686035 2.328789710998535 -8.091961860656738 12.625529289245605 -0.06641338765621185 0.06448473781347275 -0.1409432739019394 6.299945831298828 8.586788177490234 1.360967993736267 -0.20728489756584167 34.84467315673828 -2.082775831222534 21.766935348510742 -20.252613067626953 39.27241897583008
3.5746940145164765 39.07706269458454 14.414210070340104 0.8990989327430725 15.720440864562988 5.4108781814575195 -9.917410850524902 8.574382781982422 -7.876091957092285 6.874634742736816 -7.329250335693359 -1.962428331375122 -10.81610107421875 22.383663177490234 -18.62794303894043 18.949996948242188 -17.639123916625977 -34.117347717285156 0.12339895218610764 0.0013020207406952977 0.006183309946209192 -0.04340524226427078 0.028771309182047844 0.04842853173613548 -0.06991643458604813 0.02243603579699993 0.1338079422712326 68.51126861572266 37.82746124267578 -4.171044826507568 -16.08692741394043 -8.896114349365234 29.666770935058594 0.1705503612756729 3.4682350158691406 0.6771472096443176 0.11635106801986694 0.15582619607448578 -0.03341331705451012 -0.04302587732672691 -0.17593006789684296 0.33417433500289917 -0.0015174162108451128 0.1754670888185501 -0.027269868180155754 7.79346227645874 5.304049491882324 0.48142382502555847 -0.14057663083076477 0.015885256230831146 0.09749609231948853 2.805880308151245 0.840663492679596 0.015266332775354385 0.15265415608882904 -0.06266354024410248 -0.005538740660995245 10.312675476074219 0.7925194501876831 -0.12226519733667374 0.00041141643305309117 0.06738248467445374 -0.1634887158870697 2.1738009452819824 -0.7384868264198303 -0.34558743238449097 -0.03226998820900917 0.15932734310626984 -0.036788880825042725 -77.20704650878906 34.13080596923828 3.5377044677734375 21.941516876220703 -15.43674373626709 -43.066062927246094 -0.29022765159606934 1.8432741165161133 -0.30438774824142456 -0.009713167324662209 -0.22196835279464722 0.1633603423833847 -0.03722693398594856 0.24626992642879486 0.011668444611132145 0.06469020247459412 0.14780567586421967 -0.12748201191425323 -7.74328088760376 5.526884078979492 -0.3888983428478241 0.17072631418704987 -0.03336937725543976 0.1319313794374466 -2.9580447673797607 1.161749005317688 -0.04649607837200165 0.08625870198011398 0.08049721270799637 0.01715605892241001 -10.304115295410156 0.7151702046394348 -0.06218349188566208 -0.007090774830430746 0.003117405576631427 -0.06544449180364609 -2.4130938053131104 -0.9413220286369324 -0.058029625564813614 -0.1587204784154892 0.12399119138717651 -0.21848082542419434 -35.61529541015625 -61.04265213012695 -33.35301971435547 -1.70445716381073 70.76454162597656 2.4207229614257812 2.376559257507324 -7.9491190910339355 12.70916748046875 -0.04565645009279251 0.07024992257356644 -0.11381429433822632 6.130735397338867 8.654524803161621 1.3961868286132812 -0.20394866168498993 34.82065963745117 -2.085505247116089 21.892314910888672 -20.324851989746094 39.50823211669922
